# xmcd
#
# Track frame offsets:
# 150
# 20152
# 41213
# 56227
# 76933
# 105907
# 123363
# 139346
# 161560
# 178006
# 196315
# 223029
# 240931
# 260059
#
# Disc length: 3708 seconds
#
#
# Revision: 3
# Processed by: cddbd v1.5.1PL2 Copyright (c) Steve Scherf et al.
# Submitted via: FreeRIP 2.941 
#
DISCID=c80e7a0e
DTITLE=Joana - Em Oração
DYEAR=2002
DGENRE=Pop
TTITLE0=Viva a mãe de Deus e nossa
TTITLE1=Oração pela família
TTITLE2=Mãezinha do céu
TTITLE3=Nós queremos paz
TTITLE4=Ave Maria (F. Schubert)
TTITLE5=Maria de Nazaré
TTITLE6=Treze de maio
TTITLE7=Vós sois o lírio mimoso
TTITLE8=Muxima
TTITLE9=Camção para Santa Paulina
TTITLE10=Nossa Senhora
TTITLE11=Oração de São Francisco
TTITLE12=Romaria
TTITLE13=A Padroeira
EXTD=
EXTT0=
EXTT1=
EXTT2=
EXTT3=
EXTT4=
EXTT5=
EXTT6=
EXTT7=
EXTT8=
EXTT9=
EXTT10=
EXTT11=
EXTT12=
EXTT13=
PLAYORDER=
